<svg width="756" height="460" viewBox="30 50 820 500" fill="none" xmlns="http://www.w3.org/2000/svg">
<path d="M280.648 437.763L318.612 437.312L319.062 452.636L286.73 452.81L280.648 437.763Z" fill="white"/>
<rect x="569.814" y="448.279" width="79.9254" height="4.38535" fill="white"/>
<g filter="url(#filter0_d)">
<rect x="50" y="50" width="756.259" height="461.308" fill="white"/>
<rect x="51" y="51" width="754.259" height="459.308" stroke="white" stroke-width="2"/>
</g>
<path d="M161.67 402.482C159.496 387.599 171.035 374.252 186.077 374.252C200.986 374.252 212.486 387.377 210.528 402.157L206.473 432.769C205.132 442.894 196.498 450.46 186.284 450.46C176.174 450.46 167.594 443.042 166.133 433.038L161.67 402.482Z" fill="#47DB99" stroke="black" stroke-width="2"/>
<path d="M210.311 439.639L203.366 476.102L168.389 476.102L161.444 439.639L210.311 439.639Z" fill="white" stroke="black" stroke-width="2"/>
<path d="M185.236 373.893C170.492 382.226 169.851 390.56 169.851 400.176C169.851 407.885 172.629 424.535 173.698 432.869" stroke="black" stroke-width="2"/>
<path d="M187.16 373.893C201.904 382.226 202.545 390.56 202.545 400.176C202.545 407.885 199.767 424.535 198.699 432.869" stroke="black" stroke-width="2"/>
<path d="M202.545 400.817L205.109 400.176M199.981 386.714H197.416M186.519 390.561L188.442 389.278M183.954 404.664L186.519 405.946M187.16 422.613L189.083 421.972M171.774 420.69L173.698 419.408M169.851 405.946L167.287 404.664M171.774 387.355L173.698 387.996" stroke="black" stroke-width="2"/>
<path d="M185.877 373.893L186.518 432.869" stroke="black" stroke-width="2"/>
<path d="M162.8 426.46H164.723M158.954 398.253H160.877M169.21 377.74L170.492 379.022M203.186 380.304L205.109 379.022M210.237 407.228L212.802 407.869M210.237 425.177L207.673 426.46M201.263 416.203L198.058 417.485" stroke="black" stroke-width="2"/>
<rect x="215.648" y="442.661" width="59.5406" height="9.43113" transform="rotate(180 215.648 442.661)" fill="white" stroke="black" stroke-width="2"/>
<path d="M758.641 178.347L758.641 181.189L739.696 181.189L739.696 178.347L758.641 178.347Z" fill="#E4ECF4"/>
<path d="M758.641 185.926L758.641 188.768L739.696 188.768L739.696 185.926L758.641 185.926Z" fill="#E4ECF4"/>
<path d="M758.641 193.478L758.641 196.32L739.696 196.32L739.696 193.478L758.641 193.478Z" fill="#E4ECF4"/>
<path d="M758.641 200.644L758.641 203.486L739.696 203.486L739.696 200.644L758.641 200.644Z" fill="#E4ECF4"/>
<path d="M739.696 222.852H758.641V241.799H739.696V222.852Z" fill="#E4ECF4"/>
<path d="M730.223 232.326H749.169V251.273H730.223V232.326Z" fill="#47DB99"/>
<path d="M700.834 176.926L700.834 179.768L681.889 179.768L681.889 176.926L700.834 176.926Z" fill="#E4ECF4"/>
<path d="M700.834 184.505L700.834 187.347L681.889 187.347L681.889 184.505L700.834 184.505Z" fill="#E4ECF4"/>
<path d="M700.834 192.057L700.834 194.899L681.889 194.899L681.889 192.057L700.834 192.057Z" fill="#E4ECF4"/>
<path d="M700.834 199.223L700.834 202.065L681.889 202.065L681.889 199.223L700.834 199.223Z" fill="#E4ECF4"/>
<path d="M700.834 207.187L700.834 210.029L681.889 210.029L681.889 207.187L700.834 207.187Z" fill="#E4ECF4"/>
<path d="M700.834 214.354L700.834 217.196L681.889 217.196L681.889 214.354L700.834 214.354Z" fill="#E4ECF4"/>
<path d="M700.834 221.52L700.834 224.362L681.889 224.362L681.889 221.52L700.834 221.52Z" fill="#E4ECF4"/>
<path d="M700.834 229.483L700.834 232.325L681.889 232.325L681.889 229.483L700.834 229.483Z" fill="#E4ECF4"/>
<path d="M316.716 315.966C316.716 239.546 378.643 177.621 455.002 177.621C531.36 177.621 593.288 239.546 593.288 315.966C593.288 360.423 572.356 400.015 539.648 425.379H370.356C337.647 400.015 316.716 360.423 316.716 315.966Z" stroke="#E4ECF4" stroke-width="100"/>
<path d="M602.186 362.732L559.903 475.747H461.656L524.004 346.515C540.95 346.477 576.507 346.424 583.169 346.515C591.497 346.628 594.977 345.835 600.198 350.711C604.374 354.612 603.264 360.351 602.186 362.732Z" fill="black"/>
<path fill-rule="evenodd" clip-rule="evenodd" d="M524.83 347.826C542.084 347.788 576.608 347.739 583.151 347.828C584.383 347.844 585.487 347.843 586.493 347.841C589.001 347.837 590.897 347.834 592.634 348.122C594.911 348.5 596.856 349.386 599.302 351.671C601.087 353.338 601.754 355.396 601.851 357.357C601.949 359.345 601.453 361.168 600.99 362.191L600.972 362.231L558.992 474.435H463.747L524.83 347.826ZM583.187 345.203C576.511 345.112 540.939 345.165 524.002 345.202L523.18 345.204L459.565 477.06H560.813L603.401 363.232C604.009 361.87 604.593 359.654 604.473 357.227C604.351 354.748 603.485 351.986 601.094 349.752C598.319 347.16 595.913 346.005 593.064 345.532C591.096 345.206 588.881 345.21 586.262 345.214C585.294 345.216 584.272 345.217 583.187 345.203Z" fill="black"/>
<path d="M504.948 346.384C504.948 349.854 495.949 352.668 484.848 352.668C473.747 352.668 464.748 349.854 464.748 346.384C464.748 342.913 473.747 340.099 484.848 340.099C495.949 340.099 504.948 342.913 504.948 346.384Z" fill="white"/>
<path fill-rule="evenodd" clip-rule="evenodd" d="M502.355 346.189C502.355 346.189 502.353 346.194 502.348 346.203C502.352 346.194 502.354 346.189 502.355 346.189ZM502.202 346.384C502.119 346.299 501.994 346.186 501.808 346.049C501.118 345.539 499.953 344.97 498.277 344.446C494.957 343.407 490.208 342.724 484.848 342.724C479.488 342.724 474.739 343.407 471.419 344.446C469.743 344.97 468.578 345.539 467.888 346.049C467.702 346.186 467.577 346.299 467.494 346.384C467.577 346.469 467.702 346.581 467.888 346.719C468.578 347.228 469.743 347.798 471.419 348.322C474.739 349.36 479.488 350.043 484.848 350.043C490.208 350.043 494.957 349.36 498.277 348.322C499.953 347.798 501.118 347.228 501.808 346.719C501.994 346.581 502.119 346.469 502.202 346.384ZM467.341 346.189C467.342 346.189 467.344 346.194 467.348 346.203C467.343 346.194 467.341 346.189 467.341 346.189ZM467.341 346.578C467.341 346.578 467.343 346.574 467.348 346.564C467.344 346.574 467.342 346.578 467.341 346.578ZM502.348 346.564C502.353 346.574 502.355 346.578 502.355 346.578C502.354 346.578 502.352 346.574 502.348 346.564ZM484.848 352.668C495.949 352.668 504.948 349.854 504.948 346.384C504.948 342.913 495.949 340.099 484.848 340.099C473.747 340.099 464.748 342.913 464.748 346.384C464.748 349.854 473.747 352.668 484.848 352.668Z" fill="black"/>
<path d="M441.549 336.665C456.856 338.228 467.991 351.279 466.601 365.77L421.451 468.26L376.854 464.377L416.761 349.095C422.215 340.821 430.729 335.56 441.549 336.665Z" fill="white" stroke="black" stroke-width="2"/>
<path d="M495.707 346.246V309.289L462.356 312.754V346.246H495.707Z" fill="white" stroke="black" stroke-width="2"/>
<path fill-rule="evenodd" clip-rule="evenodd" d="M442.979 236.179C447.998 228.879 456 224.584 465.148 222.888C478.991 220.32 488.9 222.183 495.904 226.862C502.916 231.548 506.843 238.941 508.928 247.043C512.659 261.545 510.575 278.705 509.469 287.808C508.121 298.91 503.384 307.66 493.837 312.801C485.871 317.091 476.014 318.37 467.188 316.816C462.758 316.035 459.139 314.587 456.11 312.285C453.078 309.982 450.7 306.872 448.691 302.868C444.705 294.922 442.095 283.271 438.741 266.99C436.004 253.705 437.945 243.499 442.979 236.179Z" fill="white" stroke="black" stroke-width="2" stroke-linecap="round"/>
<path d="M476.905 221.688C521.209 223.145 517.782 271.334 513.249 286.356C510.788 297.705 504.182 304.765 502.519 307.08C495.256 306.169 498.766 285.719 503.273 286.34C507.993 286.347 510.093 275.591 507.972 271.59C506.275 268.389 501.487 271.115 500.024 272.723C496.551 226.343 435.354 229.02 436.767 258.613C436.767 258.613 433.024 220.245 476.905 221.688Z" fill="black"/>
<path d="M471.59 227.575C472.204 225.831 473.991 224.94 476.904 223.816C479.811 222.694 487.121 222.442 493.343 225.773C499.786 229.222 503.027 231.812 507.723 233.221C512.42 234.63 515.684 233.456 514.743 228.958C513.554 223.271 505.739 222.767 507.768 228.491" stroke="black" stroke-width="3" stroke-linecap="round"/>
<path d="M463.257 309.289H494.806V334.528H463.257V309.289Z" fill="white"/>
<path d="M471.342 253.38L437.117 260.045L437.961 247.938L443.842 235.027L499.312 233.573L498.015 262.418C498.015 262.418 495.124 254.282 490.006 252.639C484.887 250.995 476.976 252.639 476.976 252.639V245.013L471.342 253.38Z" fill="black"/>
<path d="M492.995 230.569C492.812 230.813 492.723 231.106 492.756 231.441C492.79 231.782 492.953 232.192 493.321 232.647C494.062 233.563 495.586 234.599 498.249 235.511C501.006 236.456 502.42 237.771 503.015 239.106C503.608 240.438 503.349 241.712 502.912 242.491" stroke="white" stroke-width="2" stroke-linecap="round"/>
<path d="M448.503 272.168C448.71 273.371 448.3 274.446 447.588 274.569C446.875 274.691 446.13 273.816 445.923 272.613C445.716 271.41 446.126 270.335 446.838 270.212C447.551 270.09 448.296 270.966 448.503 272.168Z" fill="black"/>
<path d="M471.937 268.951C472.144 270.154 471.734 271.228 471.021 271.351C470.309 271.473 469.563 270.598 469.356 269.395C469.149 268.192 469.559 267.117 470.272 266.995C470.984 266.872 471.73 267.748 471.937 268.951Z" fill="black"/>
<path d="M466.53 298.9C472.088 298.9 476.594 295.912 476.594 292.226" stroke="black" stroke-width="2" stroke-linecap="round"/>
<path d="M458.532 275.766L454.584 284.225L463.325 286.198" stroke="black" stroke-width="2" stroke-linecap="round"/>
<path d="M509.393 321.073C509.393 321.073 455.562 331.461 449.754 332.666C443.945 333.871 438.611 336.795 434.375 340.867C430.14 344.939 426.728 353.12 425.551 356.702L404.085 475.748L527.797 475.748C529.478 436.726 532.94 356.872 533.344 349.633C533.848 340.584 532.335 336.625 527.797 327.86C524.167 320.847 514.015 320.413 509.393 321.073Z" fill="black"/>
<path d="M440.778 356.464L455.001 354.817L454.065 363.42L439.842 365.067L440.778 356.464Z" fill="#C4C4C4"/>
<path d="M440.778 356.464L455.001 354.817L454.065 363.42L439.842 365.067L440.778 356.464Z" fill="white"/>
<path d="M435.817 357.041L440.779 356.466L439.843 365.069L434.881 365.644L435.817 357.041Z" fill="#FF4B78"/>
<path d="M436.89 359.181L439.206 358.912L438.769 362.927L436.453 363.195L436.89 359.181Z" fill="white"/>
<path d="M501.254 441.203L502.141 441.102V440.209V346.664C502.345 334.073 511.397 322.959 524.257 320.609C538.905 317.931 552.95 327.636 555.627 342.284C556.28 345.854 556.288 349.14 555.782 352.125L555.777 352.151L555.774 352.177L541.354 476.057L427.137 475.615V449.609L501.254 441.203Z" fill="white" stroke="black" stroke-width="2"/>
<path d="M470.664 463.627H280.784L284.546 475.747H470.664V463.627Z" fill="white" stroke="black" stroke-width="2"/>
<path d="M309.904 475.748L273.151 365.644H405.816L436.62 475.748H309.904Z" fill="white" stroke="black" stroke-width="2"/>
<path d="M362.581 414.746C366.728 420.111 366.308 426.962 362.191 430.145C358.073 433.328 351.337 432.01 347.19 426.645C343.042 421.281 343.462 414.43 347.58 411.246C351.697 408.063 358.433 409.382 362.581 414.746Z" stroke="black" stroke-width="2"/>
<path d="M100.104 194.213C100.104 186.042 106.728 179.419 114.899 179.419H304.268C312.439 179.419 319.062 186.042 319.062 194.213V200.131H100.104V194.213Z" fill="#2C73FB"/>
<path d="M318.061 329.322L101.103 329.322L101.103 201.131L318.061 201.131L318.061 329.322Z" fill="#E4ECF4" stroke="#2C73FB" stroke-width="2"/>
<rect width="70.3077" height="41.4635" transform="translate(133.14 218.106)" fill="white"/>
<path fill-rule="evenodd" clip-rule="evenodd" d="M172.14 231.106C172.929 231.106 173.569 231.746 173.569 232.535V249.678C173.569 250.467 172.929 251.106 172.14 251.106C171.352 251.106 170.712 250.467 170.712 249.678V232.535C170.712 231.746 171.352 231.106 172.14 231.106Z" fill="#2C73FB"/>
<path fill-rule="evenodd" clip-rule="evenodd" d="M182.14 241.106C182.14 241.895 181.501 242.535 180.712 242.535H163.569C162.78 242.535 162.14 241.895 162.14 241.106C162.14 240.317 162.78 239.678 163.569 239.678H180.712C181.501 239.678 182.14 240.317 182.14 241.106Z" fill="#2C73FB"/>
<path d="M120.816 191.039C120.816 192.673 119.491 193.998 117.857 193.998C116.223 193.998 114.898 192.673 114.898 191.039C114.898 189.405 116.223 188.08 117.857 188.08C119.491 188.08 120.816 189.405 120.816 191.039Z" fill="white"/>
<path d="M133.945 191.039C133.945 192.673 132.62 193.998 130.986 193.998C129.352 193.998 128.027 192.673 128.027 191.039C128.027 189.405 129.352 188.08 130.986 188.08C132.62 188.08 133.945 189.405 133.945 191.039Z" fill="white"/>
<path d="M147.073 191.039C147.073 192.673 145.748 193.998 144.114 193.998C142.48 193.998 141.155 192.673 141.155 191.039C141.155 189.405 142.48 188.08 144.114 188.08C145.748 188.08 147.073 189.405 147.073 191.039Z" fill="white"/>
<g clip-path="url(#clip0)">
<rect width="71.0134" height="41.4245" transform="translate(216.068 217.74)" fill="white"/>
<path d="M231.53 240.336L210.15 259.165H292.999V251.095L268.946 229.576L244.893 253.785L231.53 240.336Z" fill="#2C73FB"/>
<path d="M236.403 229.576C236.403 231.21 235.078 232.535 233.444 232.535C231.81 232.535 230.485 231.21 230.485 229.576C230.485 227.942 231.81 226.617 233.444 226.617C235.078 226.617 236.403 227.942 236.403 229.576Z" fill="#2C73FB"/>
</g>
<g clip-path="url(#clip1)">
<rect width="71.0134" height="41.4245" transform="translate(132.71 272.189)" fill="white"/>
<path fill-rule="evenodd" clip-rule="evenodd" d="M141.587 307.988L151.965 300.282C153.415 299.245 156.367 297.17 159.318 297.689C162.321 298.207 165.273 301.319 168.224 303.134C171.176 304.95 174.127 305.468 177.079 304.172C180.03 302.875 183.034 299.763 185.985 298.985C188.937 298.207 191.888 299.763 194.84 301.578C197.791 303.394 200.743 305.468 203.746 304.69C206.697 303.912 209.649 300.282 211.099 298.467L212.6 296.651V310.655H211.099C209.649 310.655 206.697 310.655 203.746 310.655C200.743 310.655 197.791 310.655 194.84 310.655C191.888 310.655 188.937 310.655 185.985 310.655C183.034 310.655 180.03 310.655 177.079 310.655C174.127 310.655 171.176 310.655 168.224 310.655C165.273 310.655 162.321 310.655 159.318 310.655C156.367 310.655 153.415 310.655 151.965 310.655H150.464L141.587 307.988Z" fill="#E4ECF4"/>
<path d="M142.286 303.715C135.4 303.715 129.088 310.314 126.792 313.614C162.801 313.471 221.477 313.614 221.477 313.614C221.477 313.614 217.173 307.589 213.3 303.285C210.421 300.086 202.54 289.943 189.629 289.943C176.717 289.943 166.388 308.88 158.211 308.88C150.033 308.88 150.894 303.715 142.286 303.715Z" fill="#0099FF"/>
</g>
<rect width="71.0134" height="41.4245" transform="translate(216.343 272.189)" fill="white"/>
<path d="M237.055 282.546C237.055 284.18 235.73 285.504 234.096 285.504C232.462 285.504 231.137 284.18 231.137 282.546C231.137 280.911 232.462 279.587 234.096 279.587C235.73 279.587 237.055 280.911 237.055 282.546Z" fill="#2C73FB"/>
<path fill-rule="evenodd" clip-rule="evenodd" d="M271.082 282.546C271.082 283.363 270.42 284.025 269.603 284.025H242.973C242.156 284.025 241.493 283.363 241.493 282.546C241.493 281.729 242.156 281.066 242.973 281.066H269.603C270.42 281.066 271.082 281.729 271.082 282.546Z" fill="#E4ECF4"/>
<path d="M237.055 292.902C237.055 294.536 235.73 295.861 234.096 295.861C232.462 295.861 231.137 294.536 231.137 292.902C231.137 291.268 232.462 289.943 234.096 289.943C235.73 289.943 237.055 291.268 237.055 292.902Z" fill="#47DB99"/>
<path fill-rule="evenodd" clip-rule="evenodd" d="M271.082 292.902C271.082 293.719 270.42 294.381 269.603 294.381H242.973C242.156 294.381 241.493 293.719 241.493 292.902C241.493 292.085 242.156 291.422 242.973 291.422H269.603C270.42 291.422 271.082 292.085 271.082 292.902Z" fill="#E4ECF4"/>
<path d="M237.055 303.258C237.055 304.892 235.73 306.217 234.096 306.217C232.462 306.217 231.137 304.892 231.137 303.258C231.137 301.624 232.462 300.299 234.096 300.299C235.73 300.299 237.055 301.624 237.055 303.258Z" fill="#FF3366"/>
<path fill-rule="evenodd" clip-rule="evenodd" d="M271.082 303.258C271.082 304.075 270.42 304.737 269.603 304.737H242.973C242.156 304.737 241.493 304.075 241.493 303.258C241.493 302.441 242.156 301.778 242.973 301.778H269.603C270.42 301.778 271.082 302.441 271.082 303.258Z" fill="#E4ECF4"/>
<path d="M665.289 91.3528C665.289 90.2482 666.184 89.3528 667.289 89.3528H755.176C756.28 89.3528 757.176 90.2482 757.176 91.3528V142.485C757.176 143.59 756.28 144.485 755.176 144.485H667.289C666.184 144.485 665.289 143.59 665.289 142.485V91.3528Z" fill="#E4ECF4"/>
<path fill-rule="evenodd" clip-rule="evenodd" d="M665.289 129.446L666.36 131.396C667.507 133.346 669.65 137.247 671.869 137.247C674.011 137.247 676.23 133.346 678.373 132.859C680.591 132.371 682.81 135.296 684.953 134.809C687.172 134.321 689.314 130.421 691.533 130.909C693.675 131.396 695.894 136.272 698.113 134.809C700.256 133.346 702.475 125.545 704.617 122.62C706.836 119.695 708.978 121.645 711.197 125.545C713.416 129.446 715.559 135.296 717.777 138.222C719.92 141.147 722.139 141.147 724.281 140.172C726.5 139.197 728.719 137.247 730.861 133.346C733.08 129.446 735.223 123.595 737.442 120.182C739.584 116.769 741.803 115.794 744.022 118.72C746.164 121.645 748.383 128.471 750.526 131.396C752.745 134.321 754.887 133.346 756.035 132.859L757.106 132.371V144.072H756.035C754.887 144.072 752.745 144.072 750.526 144.072C748.383 144.072 746.164 144.072 744.022 144.072C741.803 144.072 739.584 144.072 737.442 144.072C735.223 144.072 733.08 144.072 730.861 144.072C728.719 144.072 726.5 144.072 724.281 144.072C722.139 144.072 719.92 144.072 717.777 144.072C715.559 144.072 713.416 144.072 711.197 144.072C708.978 144.072 706.836 144.072 704.617 144.072C702.475 144.072 700.256 144.072 698.113 144.072C695.894 144.072 693.675 144.072 691.533 144.072C689.314 144.072 687.172 144.072 684.953 144.072C682.81 144.072 680.591 144.072 678.373 144.072C676.23 144.072 674.011 144.072 671.869 144.072C669.65 144.072 667.507 144.072 666.36 144.072H665.289V129.446Z" fill="#0099FF"/>
<path d="M178.544 117.815C178.544 115.212 180.99 113.102 184.008 113.102C187.027 113.102 189.473 115.212 189.473 117.815V145.152C189.473 147.755 187.027 149.865 184.008 149.865C180.99 149.865 178.544 147.755 178.544 145.152V117.815Z" fill="#47DB99"/>
<path d="M226.236 110.985C226.236 107.764 228.683 105.153 231.701 105.153C234.719 105.153 237.166 107.764 237.166 110.985V144.033C237.166 147.254 234.719 149.865 231.701 149.865C228.683 149.865 226.236 147.254 226.236 144.033V110.985Z" fill="#E4ECF4"/>
<path d="M194.441 131.484C194.441 128.466 196.888 126.019 199.906 126.019C202.924 126.019 205.371 128.466 205.371 131.484V144.4C205.371 147.419 202.924 149.865 199.906 149.865C196.888 149.865 194.441 147.419 194.441 144.4V131.484Z" fill="#FF4B78"/>
<path d="M210.339 121.874C210.339 118.676 212.785 116.083 215.803 116.083C218.821 116.083 221.268 118.676 221.268 121.874V144.074C221.268 147.272 218.821 149.865 215.803 149.865C212.785 149.865 210.339 147.272 210.339 144.074V121.874Z" fill="#2C73FB"/>
<path d="M242.134 142.91C242.134 139.617 244.58 136.948 247.598 136.948C250.616 136.948 253.063 139.617 253.063 142.91V143.903C253.063 147.196 250.616 149.865 247.598 149.865C244.58 149.865 242.134 147.196 242.134 143.903V142.91Z" fill="#47DB99"/>
<path d="M543.568 167.622C528.653 163.625 519.801 148.292 523.798 133.375C527.794 118.458 543.126 109.606 558.042 113.603C572.958 117.6 581.809 132.933 577.813 147.85C573.816 162.767 558.484 171.619 543.568 167.622Z" fill="#E4F4E6"/>
<path d="M578.766 140.612C578.766 146.142 577.126 151.548 574.053 156.147C570.981 160.745 566.614 164.329 561.505 166.445C556.396 168.562 550.774 169.116 545.35 168.037C539.927 166.958 534.945 164.294 531.034 160.384C527.124 156.473 524.461 151.491 523.382 146.067C522.303 140.643 522.857 135.02 524.973 129.911C527.09 124.801 530.673 120.434 535.271 117.362C539.869 114.289 545.275 112.649 550.805 112.649V140.612H578.766Z" fill="#47DB99"/>
<path d="M127.806 476.285C362.482 476.285 494.056 476.285 728.733 476.285" stroke="black" stroke-width="2" stroke-linecap="round"/>
<path d="M574.043 217.421C600.704 221.23 655.319 241.267 660.485 290.947C665.652 340.627 651.046 417.961 643.097 450.419" stroke="black" stroke-width="2"/>
<path d="M732.436 314.505C717.18 312.759 683.591 317.197 671.279 348.914C658.966 380.631 652.14 433.606 650.266 456.129" stroke="black" stroke-width="2"/>
<rect x="694.261" y="420.605" width="87.4235" height="9.92313" transform="rotate(180 694.261 420.605)" fill="white" stroke="black" stroke-width="2"/>
<path d="M686.075 420.785L675.884 476.056L624.754 476.056L614.564 420.785L686.075 420.785Z" fill="white" stroke="black" stroke-width="2"/>
<path d="M649.752 219.956C647.259 228.694 641.474 232.965 636.28 235.075C633.673 236.134 631.218 236.646 629.413 236.893C628.512 237.016 627.777 237.072 627.272 237.098C627.07 237.108 626.905 237.113 626.781 237.116C626.677 237.048 626.539 236.957 626.373 236.841C625.957 236.553 625.363 236.117 624.662 235.537C623.26 234.376 621.444 232.645 619.789 230.37C616.49 225.837 613.83 219.157 616.323 210.418C618.834 201.616 625.41 194.799 631.459 190.15C634.473 187.833 637.329 186.076 639.43 184.899C640.48 184.31 641.34 183.867 641.935 183.573C641.985 183.549 642.032 183.525 642.077 183.503C642.104 183.546 642.132 183.591 642.161 183.637C642.511 184.201 643.008 185.031 643.59 186.085C644.753 188.194 646.252 191.194 647.59 194.752C650.275 201.894 652.263 211.153 649.752 219.956Z" fill="#47DB99" stroke="black" stroke-width="2"/>
<path d="M628.194 247.852C634.614 246.533 639.265 248.805 642.348 251.424C643.897 252.741 645.047 254.144 645.809 255.219C646.189 255.756 646.47 256.208 646.654 256.522C646.707 256.611 646.752 256.69 646.789 256.755C646.781 256.83 646.77 256.92 646.757 257.023C646.712 257.384 646.631 257.91 646.493 258.553C646.217 259.842 645.714 261.584 644.81 263.405C643.009 267.028 639.631 270.95 633.211 272.269C626.725 273.601 620.135 271.665 615.088 269.321C612.578 268.154 610.481 266.901 609.013 265.94C608.341 265.501 607.803 265.123 607.418 264.845C607.661 264.437 608.008 263.877 608.451 263.209C609.422 261.747 610.855 259.769 612.702 257.707C616.415 253.563 621.708 249.185 628.194 247.852Z" fill="#47DB99" stroke="black" stroke-width="2"/>
<path d="M559.479 222.854C563.797 217.923 568.875 216.921 572.914 217.145C574.944 217.257 576.708 217.68 577.965 218.076C578.592 218.274 579.089 218.464 579.426 218.602C579.522 218.642 579.605 218.677 579.674 218.707C579.713 218.772 579.759 218.849 579.811 218.939C579.993 219.255 580.247 219.722 580.526 220.318C581.085 221.511 581.737 223.204 582.117 225.201C582.873 229.175 582.552 234.341 578.235 239.273C573.873 244.255 567.453 246.696 562.016 247.879C559.311 248.467 556.883 248.736 555.132 248.858C554.332 248.914 553.675 248.939 553.199 248.95C553.147 248.477 553.085 247.822 553.034 247.022C552.924 245.27 552.869 242.828 553.095 240.069C553.548 234.523 555.118 227.836 559.479 222.854Z" fill="#47DB99" stroke="black" stroke-width="2"/>
<path d="M683.373 302.536C678.258 306.635 673.083 306.73 669.145 305.803C667.166 305.336 665.504 304.611 664.336 304C663.753 303.696 663.297 303.422 662.99 303.226C662.902 303.171 662.827 303.121 662.764 303.079C662.737 303.009 662.705 302.925 662.67 302.827C662.546 302.485 662.378 301.98 662.208 301.345C661.867 300.072 661.521 298.291 661.497 296.258C661.45 292.213 662.671 287.183 667.786 283.084C672.953 278.944 679.702 277.666 685.262 277.455C688.028 277.35 690.466 277.51 692.211 277.697C693.009 277.782 693.66 277.873 694.13 277.946C694.098 278.42 694.045 279.076 693.954 279.873C693.756 281.616 693.382 284.03 692.676 286.707C691.258 292.088 688.54 298.396 683.373 302.536Z" fill="#47DB99" stroke="black" stroke-width="2"/>
<path d="M640.438 384.011C645.553 388.11 650.729 388.205 654.666 387.277C656.645 386.811 658.307 386.085 659.475 385.475C660.058 385.17 660.514 384.896 660.821 384.701C660.909 384.645 660.984 384.596 661.047 384.554C661.074 384.484 661.106 384.399 661.141 384.302C661.265 383.959 661.433 383.454 661.603 382.819C661.944 381.546 662.29 379.766 662.314 377.733C662.361 373.688 661.14 368.658 656.025 364.559C650.858 360.419 644.109 359.141 638.549 358.93C635.783 358.824 633.345 358.985 631.6 359.171C630.802 359.257 630.151 359.348 629.681 359.42C629.713 359.895 629.766 360.55 629.857 361.348C630.055 363.091 630.43 365.505 631.135 368.182C632.553 373.562 635.271 379.871 640.438 384.011Z" fill="#47DB99" stroke="black" stroke-width="2"/>
<path d="M686.308 357.464C680.463 354.497 678.239 349.823 677.459 345.854C677.066 343.859 677.041 342.045 677.115 340.729C677.151 340.073 677.213 339.544 677.264 339.184C677.278 339.081 677.292 338.992 677.304 338.917C677.357 338.864 677.421 338.8 677.495 338.728C677.756 338.473 678.147 338.112 678.655 337.695C679.673 336.858 681.152 335.808 682.994 334.947C686.659 333.234 691.744 332.269 697.589 335.236C703.493 338.232 707.444 343.852 709.932 348.829C711.17 351.305 712.03 353.591 712.58 355.257C712.832 356.019 713.018 356.65 713.146 357.108C712.701 357.275 712.082 357.497 711.318 357.744C709.649 358.283 707.295 358.939 704.566 359.401C699.08 360.331 692.212 360.46 686.308 357.464Z" fill="#47DB99" stroke="black" stroke-width="2"/>
<path d="M722.453 335.137C719.194 329.45 719.899 324.322 721.424 320.576C722.19 318.692 723.164 317.162 723.948 316.103C724.339 315.574 724.68 315.165 724.92 314.892C724.989 314.814 725.049 314.747 725.1 314.692C725.174 314.676 725.262 314.658 725.364 314.638C725.722 314.568 726.247 314.48 726.9 314.41C728.211 314.27 730.023 314.203 732.036 314.494C736.039 315.072 740.82 317.056 744.079 322.743C747.372 328.487 747.591 335.353 746.941 340.879C746.617 343.628 746.082 346.012 745.628 347.707C745.421 348.482 745.23 349.111 745.086 349.564C744.622 349.46 743.983 349.306 743.209 349.093C741.517 348.628 739.19 347.885 736.654 346.774C731.558 344.542 725.745 340.882 722.453 335.137Z" fill="#47DB99" stroke="black" stroke-width="2"/>
<path d="M276.347 475.489L276.446 476.379H277.341H308.1H308.995L309.094 475.489L314.686 425.018L314.809 423.908H313.693H271.748H270.631L270.754 425.018L276.347 475.489Z" fill="#E4ECF4" stroke="black" stroke-width="2"/>
<path d="M268.797 417.019L268.504 417.312V417.726V423.823V424.823H269.504H315.936H316.936V423.823V417.726V417.312L316.643 417.019L309.725 410.101L309.432 409.808H309.018H276.423H276.008L275.715 410.101L268.797 417.019Z" fill="white" stroke="black" stroke-width="2"/>
<path d="M273.151 437.425L312.34 437.425L308.395 475.379H277.358L273.151 437.425Z" fill="#2C73FB"/>
<path d="M369.32 169.208L396.002 169.208L423.423 185.982L423.423 169.208L436.338 169.208L436.338 106.479L369.32 106.479L369.32 169.208Z" fill="white" stroke="black" stroke-width="2"/>
<path d="M386.446 134.158C386.446 137.089 387.693 138.847 388.316 139.433C388.94 140.02 402.499 153.648 402.499 153.648C402.499 153.648 416.057 140.02 416.681 139.433C417.304 138.847 418.551 137.089 418.551 134.158C418.551 129.14 414.225 125.072 408.888 125.072C406.439 125.072 404.202 125.929 402.499 127.342C400.795 125.929 398.559 125.072 396.109 125.072C390.772 125.072 386.446 129.14 386.446 134.158Z" fill="#FF4B78"/>
<defs>
<filter id="filter0_d" x="0" y="0" width="996.259" height="701.308" filterUnits="userSpaceOnUse" color-interpolation-filters="sRGB">
<feFlood flood-opacity="0" result="BackgroundImageFix"/>
<feColorMatrix in="SourceAlpha" type="matrix" values="0 0 0 0 0 0 0 0 0 0 0 0 0 0 0 0 0 0 127 0"/>
<feOffset dx="70" dy="70"/>
<feGaussianBlur stdDeviation="60"/>
<feColorMatrix type="matrix" values="0 0 0 0 1 0 0 0 0 1 0 0 0 0 1 0 0 0 0.14 0"/>
<feBlend mode="normal" in2="BackgroundImageFix" result="effect1_dropShadow"/>
<feBlend mode="normal" in="SourceGraphic" in2="effect1_dropShadow" result="shape"/>
</filter>
<clipPath id="clip0">
<rect width="71.0134" height="41.4245" fill="white" transform="translate(216.068 217.74)"/>
</clipPath>
<clipPath id="clip1">
<rect width="71.0134" height="41.4245" fill="white" transform="translate(132.71 272.189)"/>
</clipPath>
</defs>
</svg>
