<svg width="389" height="100" viewBox="0 0 389 100" fill="none" xmlns="http://www.w3.org/2000/svg">
<g clip-path="url(#clip0)">
<rect width="89.4559" height="47.1205" transform="matrix(0.866408 -0.499337 0.500663 0.865642 236.082 61.5164)" fill="#E4ECF4"/>
<rect width="24.3971" height="24.3755" rx="12.1878" transform="matrix(0.866408 -0.499337 0.500663 0.865642 289.676 43.5232)" fill="#2C73FB"/>
<rect width="31.0046" height="2.53912" transform="matrix(-0.866408 0.499337 -0.500663 -0.865642 279.811 52.2268)" fill="#BFCFDF"/>
<rect width="31.34" height="5.07823" transform="matrix(-0.866408 0.499337 -0.500663 -0.865642 284.692 60.4792)" fill="#BFCFDF"/>
<rect width="31.34" height="7.61735" transform="matrix(-0.866408 0.499337 -0.500663 -0.865642 290.794 71.0295)" fill="#BFCFDF"/>
<rect width="89.4559" height="47.1205" transform="matrix(0.866408 -0.499337 0.500663 0.865642 355.733 60.2769)" fill="#E4ECF4"/>
<rect width="31.0046" height="2.53912" transform="matrix(-0.866408 0.499337 -0.500663 -0.865642 399.462 50.9873)" fill="#BFCFDF"/>
<rect width="31.34" height="5.07823" transform="matrix(-0.866408 0.499337 -0.500663 -0.865642 404.343 59.2397)" fill="#BFCFDF"/>
<rect width="31.34" height="7.61735" transform="matrix(-0.866408 0.499337 -0.500663 -0.865642 410.445 69.79)" fill="#BFCFDF"/>
<rect width="89.4559" height="47.1205" transform="matrix(0.866408 -0.499337 0.500663 0.865642 -3.9458 64.7717)" fill="#E4ECF4"/>
<rect width="24.3971" height="24.3755" rx="12.1878" transform="matrix(0.866408 -0.499337 0.500663 0.865642 49.6482 46.7788)" fill="#2C73FB"/>
<rect width="31.0046" height="2.53912" transform="matrix(-0.866408 0.499337 -0.500663 -0.865642 39.7834 55.4822)" fill="#BFCFDF"/>
<rect width="31.34" height="5.07823" transform="matrix(-0.866408 0.499337 -0.500663 -0.865642 44.6641 63.7346)" fill="#BFCFDF"/>
<rect width="31.34" height="7.61735" transform="matrix(-0.866408 0.499337 -0.500663 -0.865642 50.7661 74.2849)" fill="#BFCFDF"/>
<rect width="89.4559" height="47.1205" transform="matrix(0.866408 -0.499337 0.500663 0.865642 326.505 9.40283)" fill="#E4ECF4"/>
<rect width="24.3971" height="24.3755" rx="12.1878" transform="matrix(0.866408 -0.499337 0.500663 0.865642 380.099 -8.59009)" fill="#47DB99"/>
<rect width="31.0046" height="2.53912" transform="matrix(-0.866408 0.499337 -0.500663 -0.865642 370.234 0.113281)" fill="#BFCFDF"/>
<rect width="31.34" height="5.07823" transform="matrix(-0.866408 0.499337 -0.500663 -0.865642 375.115 8.36572)" fill="#BFCFDF"/>
<rect width="31.34" height="7.61735" transform="matrix(-0.866408 0.499337 -0.500663 -0.865642 381.217 18.916)" fill="#BFCFDF"/>
<rect width="89.4559" height="47.1205" transform="matrix(0.866408 -0.499337 0.500663 0.865642 -33.1741 13.8977)" fill="#E4ECF4"/>
<rect x="2.05061" y="0.549457" width="21.3971" height="21.3755" rx="10.6878" transform="matrix(0.866408 -0.499337 0.500663 0.865642 20.4188 -2.99769)" stroke="#47DB99" stroke-width="3"/>
<rect width="31.0046" height="2.53912" transform="matrix(-0.866408 0.499337 -0.500663 -0.865642 10.5552 4.60815)" fill="#BFCFDF"/>
<rect width="31.34" height="5.07823" transform="matrix(-0.866408 0.499337 -0.500663 -0.865642 15.4358 12.8606)" fill="#BFCFDF"/>
<rect width="31.34" height="7.61735" transform="matrix(-0.866408 0.499337 -0.500663 -0.865642 21.5378 23.4109)" fill="#BFCFDF"/>
<rect width="89.4559" height="47.1205" transform="matrix(0.866408 -0.499337 0.500663 0.865642 86.7415 12.7771)" fill="#E4ECF4"/>
<rect width="24.3971" height="24.3755" rx="12.1878" transform="matrix(0.866408 -0.499337 0.500663 0.865642 140.335 -5.21582)" fill="#47DB99"/>
<rect width="31.0046" height="2.53912" transform="matrix(-0.866408 0.499337 -0.500663 -0.865642 130.471 3.48755)" fill="#BFCFDF"/>
<rect width="31.34" height="5.07823" transform="matrix(-0.866408 0.499337 -0.500663 -0.865642 135.351 11.74)" fill="#BFCFDF"/>
<rect width="31.34" height="7.61735" transform="matrix(-0.866408 0.499337 -0.500663 -0.865642 141.453 22.2903)" fill="#BFCFDF"/>
<rect width="89.4559" height="47.1205" transform="matrix(0.866408 -0.499337 0.500663 0.865642 265.457 112.306)" fill="#E4ECF4"/>
<rect width="24.3971" height="24.3755" rx="12.1878" transform="matrix(0.866408 -0.499337 0.500663 0.865642 319.051 94.313)" fill="#47DB99"/>
<rect width="89.4559" height="47.1205" transform="matrix(0.866408 -0.499337 0.500663 0.865642 177.487 -39.7935)" fill="#E4ECF4"/>
<rect width="89.4559" height="47.1205" transform="matrix(0.866408 -0.499337 0.500663 0.865642 -94.2217 116.801)" fill="#E4ECF4"/>
<rect width="89.4559" height="47.1205" transform="matrix(0.866408 -0.499338 0.500663 0.865642 385.255 110.982)" fill="#E4ECF4"/>
<rect width="89.4559" height="47.1205" transform="matrix(0.866408 -0.499337 0.500663 0.865642 25.5764 115.477)" fill="#E4ECF4"/>
<rect x="2.05061" y="0.549457" width="21.3971" height="21.3755" rx="10.6878" transform="matrix(0.866408 -0.499337 0.500663 0.865642 79.1693 98.5817)" stroke="black" stroke-width="3"/>
<rect width="89.4559" height="47.1205" transform="matrix(0.866408 -0.499337 0.500663 0.865642 145.219 113.884)" fill="#E4ECF4"/>
<rect width="24.3971" height="24.3755" rx="12.1878" transform="matrix(0.866408 -0.499337 0.500663 0.865642 198.812 95.8909)" fill="#FF4B78"/>
<rect width="89.4559" height="47.1205" transform="matrix(0.866408 -0.499337 0.500663 0.865642 57.2488 -38.2156)" fill="#E4ECF4"/>
<rect width="89.4559" height="47.1205" transform="matrix(0.866408 -0.499337 0.500663 0.865642 206.844 10.9631)" fill="#E4ECF4"/>
<rect x="2.05061" y="0.549457" width="21.3971" height="21.3755" rx="10.6878" transform="matrix(0.866408 -0.499337 0.500663 0.865642 260.436 -5.93202)" stroke="#FF4B78" stroke-width="3"/>
<rect width="31.0046" height="2.53912" transform="matrix(-0.866408 0.499337 -0.500663 -0.865642 250.573 1.67358)" fill="#BFCFDF"/>
<rect width="31.34" height="5.07823" transform="matrix(-0.866408 0.499337 -0.500663 -0.865642 255.453 9.92603)" fill="#BFCFDF"/>
<rect width="31.34" height="7.61735" transform="matrix(-0.866408 0.499337 -0.500663 -0.865642 261.555 20.4763)" fill="#BFCFDF"/>
<rect width="89.4559" height="47.1205" transform="matrix(0.866408 -0.499337 0.500663 0.865642 115.999 63.3635)" fill="#E4ECF4"/>
<rect width="24.3971" height="24.3755" rx="12.1878" transform="matrix(0.866408 -0.499337 0.500663 0.865642 169.593 45.3704)" fill="black"/>
<rect width="31.0046" height="2.53912" transform="matrix(-0.866408 0.499337 -0.500663 -0.865642 159.729 54.074)" fill="#BFCFDF"/>
<rect width="31.34" height="5.07823" transform="matrix(-0.866408 0.499337 -0.500663 -0.865642 164.609 62.3264)" fill="#BFCFDF"/>
<rect width="31.34" height="7.61735" transform="matrix(-0.866408 0.499337 -0.500663 -0.865642 170.711 72.8767)" fill="#BFCFDF"/>
</g>
<defs>
<clipPath id="clip0">
<rect width="389" height="100" fill="white"/>
</clipPath>
</defs>
</svg>
