<svg width="338" height="300" viewBox="0 0 338 247" fill="none" xmlns="http://www.w3.org/2000/svg">
<path d="M106.439 231.149L125.357 230.924L125.581 238.56L109.469 238.647L106.439 231.149Z" fill="white"/>
<rect x="250.534" y="236.389" width="39.828" height="2.18528" fill="white"/>
<path fill-rule="evenodd" clip-rule="evenodd" d="M100.072 154.019C100.072 176.18 118.036 194.145 140.196 194.145C162.355 194.145 180.319 176.18 180.319 154.019C180.319 131.857 162.355 113.892 140.196 113.892C118.036 113.892 100.072 131.857 100.072 154.019ZM140.196 90.2885C105.001 90.2885 76.4705 118.821 76.4705 154.019C76.4705 189.216 105.001 217.749 140.196 217.749C175.39 217.749 203.921 189.216 203.921 154.019C203.921 118.821 175.39 90.2885 140.196 90.2885Z" fill="#E4ECF4"/>
<path d="M52.7771 71.7843C36.5349 67.4319 26.896 50.7357 31.2481 34.4923C35.6002 18.2488 52.2952 8.60924 68.5374 12.9617C84.7796 17.3141 94.4185 34.0103 90.0664 50.2538C85.7143 66.4972 69.0193 76.1368 52.7771 71.7843Z" fill="#E4ECF4"/>
<path d="M31.2483 34.4922C32.9901 27.991 36.8368 22.2501 42.187 18.1671C47.5371 14.084 54.0893 11.8887 60.8192 11.9245L60.6574 42.3729L31.2483 34.4922Z" fill="#2C73FB"/>
<path d="M121.433 67.9833C111.461 65.3111 105.543 55.0604 108.215 45.0877C110.887 35.1149 121.137 29.1967 131.109 31.8689C141.081 34.541 146.999 44.7918 144.327 54.7645C141.655 64.7372 131.405 70.6555 121.433 67.9833Z" fill="#F4E4E4"/>
<path d="M131.425 31.9566C136.19 33.3235 140.217 36.5277 142.621 40.8642L126.271 49.9263L131.425 31.9566Z" fill="#FF4B78"/>
<path d="M289.503 217.89C273.261 213.537 263.622 196.841 267.974 180.597C272.327 164.354 289.022 154.714 305.264 159.067C321.506 163.419 331.145 180.116 326.793 196.359C322.441 212.602 305.746 222.242 289.503 217.89Z" fill="#F4E4E4"/>
<path d="M289.503 217.89C283.687 216.331 278.463 213.082 274.492 208.555C270.522 204.027 267.983 198.423 267.197 192.453C266.411 186.482 267.413 180.412 270.077 175.011C272.74 169.61 276.945 165.12 282.16 162.109L297.383 188.478L289.503 217.89Z" fill="#FF4B78"/>
<path d="M229.344 217.681C219.475 215.036 213.618 204.891 216.262 195.021C218.907 185.151 229.051 179.294 238.92 181.939C248.789 184.583 254.646 194.728 252.002 204.598C249.357 214.468 239.213 220.326 229.344 217.681Z" fill="#E4ECF4"/>
<path d="M252.632 199.81C252.632 203.469 251.547 207.046 249.514 210.089C247.481 213.131 244.592 215.503 241.211 216.903C237.831 218.303 234.111 218.67 230.523 217.956C226.934 217.242 223.637 215.48 221.05 212.892C218.463 210.305 216.701 207.008 215.987 203.419C215.273 199.83 215.64 196.11 217.04 192.73C218.44 189.349 220.811 186.459 223.854 184.426C226.896 182.393 230.473 181.308 234.132 181.308V199.81H252.632Z" fill="#47DB99"/>
<path d="M126.507 228.963C126.507 225.835 129.043 223.298 132.172 223.298H135.948C139.076 223.298 141.612 225.835 141.612 228.963V232.74H126.507V228.963Z" fill="white"/>
<path fill-rule="evenodd" clip-rule="evenodd" d="M135.948 224.242H132.172C129.565 224.242 127.451 226.356 127.451 228.963V231.796H140.668V228.963C140.668 226.356 138.555 224.242 135.948 224.242ZM132.172 223.298C129.043 223.298 126.507 225.835 126.507 228.963V232.74H141.612V228.963C141.612 225.835 139.076 223.298 135.948 223.298H132.172Z" fill="black"/>
<path fill-rule="evenodd" clip-rule="evenodd" d="M70.955 109.368C74.1237 106.637 78.4562 107.472 80.3369 111.144C82.1254 114.635 81.0144 119.388 77.8415 121.701L63.6674 132.031L76.7087 141.407C78.6664 142.815 79.5895 145.477 78.9202 147.784C78.0898 150.647 75.1606 151.876 72.5903 150.439L51.8822 138.865C48.7979 137.141 47.3324 133.073 48.6088 129.778C48.7715 129.358 48.9701 128.972 49.1993 128.621C49.5774 127.974 50.0559 127.386 50.6277 126.893L70.955 109.368Z" fill="white"/>
<path fill-rule="evenodd" clip-rule="evenodd" d="M62.0573 132.036L76.1576 142.174C77.7924 143.349 78.5709 145.599 78.0135 147.521C77.348 149.816 75.0775 150.748 73.0509 149.615L52.3427 138.041C49.6692 136.547 48.3827 132.975 49.4891 130.119L48.6088 129.778C47.3324 133.073 48.7979 137.141 51.8822 138.865L72.5903 150.439C75.1606 151.876 78.0898 150.647 78.9202 147.784C79.5895 145.477 78.6664 142.815 76.7087 141.407L63.6674 132.031L77.8415 121.701C81.0144 119.388 82.1254 114.635 80.3369 111.144C78.4562 107.472 74.1237 106.637 70.955 109.368L50.6277 126.893C50.0559 127.386 49.5774 127.974 49.1993 128.621C48.9701 128.972 48.7715 129.358 48.6088 129.778L49.4891 130.119C49.6286 129.759 49.7975 129.432 49.9898 129.137L50.0026 129.118L50.0143 129.097C50.3432 128.535 50.7561 128.029 51.2442 127.609L71.5714 110.084C72.9518 108.893 74.5388 108.513 75.9524 108.782C77.3655 109.051 78.6819 109.983 79.4966 111.574C81.0751 114.655 80.0796 118.901 77.2854 120.938L62.0573 132.036Z" fill="black"/>
<path d="M72.883 114.759C74.0725 101.915 90.2304 96.2348 100.639 105.867C111.047 115.5 100.639 163.17 100.639 163.17C96.1781 165.063 72.883 167.121 72.883 167.121C72.883 167.121 71.396 130.814 72.883 114.759Z" fill="black"/>
<path fill-rule="evenodd" clip-rule="evenodd" d="M73.3529 114.802C74.5004 102.412 90.1489 96.8025 100.318 106.214C101.537 107.342 102.479 109.055 103.178 111.239C103.875 113.419 104.317 116.033 104.559 118.924C105.044 124.706 104.722 131.535 104.072 138.084C103.423 144.629 102.449 150.877 101.638 155.489C101.232 157.794 100.866 159.691 100.603 161.01C100.471 161.669 100.365 162.185 100.291 162.535C100.267 162.649 100.247 162.746 100.23 162.824C99.1029 163.245 96.9801 163.689 94.3439 164.12C91.5428 164.578 88.2206 165.011 85.0328 165.387C81.846 165.762 78.7978 166.078 76.546 166.3C75.4202 166.412 74.4938 166.499 73.8489 166.559C73.6499 166.578 73.4778 166.593 73.3349 166.607C73.3246 166.341 73.3106 165.973 73.2936 165.512C73.2558 164.489 73.2036 163.009 73.1455 161.182C73.0294 157.529 72.8901 152.492 72.7972 146.953C72.6113 135.866 72.6121 122.8 73.3529 114.802ZM72.8828 167.121C72.4112 167.141 72.4112 167.141 72.4112 167.14L72.4111 167.139L72.407 167.036C72.4042 166.966 72.4001 166.863 72.3948 166.728C72.3843 166.458 72.369 166.06 72.3501 165.547C72.3124 164.522 72.2601 163.041 72.2019 161.212C72.0857 157.556 71.9463 152.513 71.8533 146.969C71.6674 135.887 71.6666 122.772 72.4128 114.715C73.6443 101.418 90.3117 95.6668 100.959 105.521C102.343 106.801 103.352 108.685 104.077 110.951C104.803 113.222 105.255 115.913 105.5 118.845C105.992 124.71 105.663 131.605 105.012 138.177C104.36 144.754 103.382 151.026 102.567 155.652C102.16 157.966 101.793 159.87 101.529 161.195C101.396 161.858 101.289 162.376 101.215 162.729C101.178 162.905 101.149 163.04 101.13 163.131L101.108 163.235L101.1 163.27C101.1 163.27 101.1 163.27 100.639 163.169L101.1 163.27L101.048 163.509L100.823 163.604C99.6465 164.104 97.2958 164.594 94.4961 165.052C91.6749 165.513 88.3368 165.948 85.1432 166.324C81.9487 166.7 78.8943 167.017 76.6388 167.24C75.511 167.351 74.5827 167.439 73.9362 167.499C73.6129 167.529 73.3601 167.552 73.1881 167.568L72.9255 167.591L72.9247 167.592C72.9245 167.592 72.9244 167.592 72.8828 167.121ZM72.8828 167.121L72.9247 167.592L72.4314 167.635L72.4112 167.14L72.8828 167.121Z" fill="black"/>
<path d="M76.5867 89.4329C76.2337 87.3773 77.6138 85.4246 79.6693 85.0716L86.7585 83.8541C88.814 83.5011 90.7665 84.8813 91.1195 86.937L93.6278 101.544C93.9808 103.6 92.6007 105.553 90.5452 105.906L83.456 107.123C81.4005 107.476 79.448 106.096 79.095 104.04L76.5867 89.4329Z" fill="white"/>
<path fill-rule="evenodd" clip-rule="evenodd" d="M86.9183 84.7846L79.8291 86.0021C78.2875 86.2669 77.2524 87.7314 77.5171 89.2731L80.0255 103.88C80.2902 105.422 81.7546 106.457 83.2962 106.193L90.3854 104.975C91.927 104.71 92.9621 103.246 92.6974 101.704L90.189 87.0968C89.9243 85.555 88.4599 84.5198 86.9183 84.7846ZM79.6693 85.0716C77.6138 85.4246 76.2337 87.3773 76.5867 89.4329L79.095 104.04C79.448 106.096 81.4005 107.476 83.456 107.123L90.5452 105.906C92.6007 105.553 93.9808 103.6 93.6278 101.544L91.1195 86.937C90.7665 84.8813 88.814 83.5011 86.7585 83.8541L79.6693 85.0716Z" fill="black"/>
<path fill-rule="evenodd" clip-rule="evenodd" d="M91.182 72.1617C91.0887 72.4052 91.2105 72.6782 91.4539 72.7715L99.1714 75.7281L94.9643 79.8216C94.7774 80.0034 94.7733 80.3023 94.9551 80.4892C95.1369 80.6761 95.4357 80.6802 95.6226 80.4984L100.888 75.3748L91.7916 71.8898C91.5482 71.7965 91.2752 71.9183 91.182 72.1617Z" fill="black"/>
<path d="M67.5263 81.2228C63.2759 71.5344 67.5392 65.0041 74.5915 61.9652C96.0964 52.6986 96.4775 78.4979 98.4681 84.6812C100.87 92.1407 89.9107 97.2227 82.6341 97.7012C75.3575 98.1797 72.8394 93.3333 67.5263 81.2228Z" fill="white"/>
<path fill-rule="evenodd" clip-rule="evenodd" d="M66.3885 68.9105C67.8652 65.5489 70.802 63.0842 74.405 61.5316C79.8517 59.1846 84.0426 59.0237 87.2872 60.2962C90.5275 61.5669 92.7254 64.2289 94.2701 67.3183C95.8143 70.4068 96.7304 73.9706 97.3842 77.1243C97.6203 78.2634 97.8237 79.3566 98.0095 80.3552C98.0809 80.7389 98.1496 81.1087 98.2167 81.4617C98.4604 82.7449 98.6793 83.7959 98.9177 84.5366C100.215 88.5671 97.8607 91.8925 94.4449 94.2003C91.0196 96.5145 86.3784 97.9281 82.6653 98.1723C80.7914 98.2955 79.1917 98.0777 77.7649 97.4652C76.3377 96.8525 75.1174 95.8593 73.9803 94.4837C71.7261 91.7564 69.742 87.4476 67.0943 81.4125C64.9287 76.4761 64.9078 72.2811 66.3885 68.9105ZM67.2528 69.2903C65.9013 72.3668 65.874 76.281 67.9588 81.0331C70.6242 87.1085 72.5557 91.2782 74.708 93.8821C75.7742 95.1721 76.8798 96.0577 78.1373 96.5976C79.3953 97.1376 80.839 97.3462 82.6034 97.2302C86.1669 96.9958 90.6435 95.6292 93.9164 93.4179C97.1989 91.2002 99.123 88.2549 98.0191 84.8259C97.7599 84.0207 97.5314 82.9129 97.2892 81.6379C97.2209 81.2784 97.1514 80.9047 97.0796 80.5187C96.8944 79.523 96.6938 78.4449 96.4598 77.316C95.8102 74.1828 94.9137 70.7166 93.4257 67.7406C91.9382 64.7657 89.8842 62.3288 86.9426 61.1752C84.0053 60.0233 80.0843 60.1124 74.7786 62.3987C71.3293 63.8851 68.6082 66.205 67.2528 69.2903Z" fill="black"/>
<path d="M94.0252 68.4788C91.3401 68.5323 89.1893 72.9982 88.4408 73.3985C87.6923 73.7987 86.9783 72.8772 85.63 73.1242C83.9447 73.433 83.7446 77.9093 87.1208 79.6585C87.7185 79.9681 87.1208 86.4939 87.1208 86.4939C86.1779 90.3099 73.374 92.3937 73.6028 92.9673C73.6073 92.9753 73.6097 92.9794 73.6097 92.9794C73.6067 92.9754 73.6044 92.9714 73.6028 92.9673C73.4036 92.6194 68.9486 84.8328 68.0856 82.8909C64.8546 75.621 65.7118 66.928 71.2079 63.9149C76.704 60.9019 81.3382 59.8411 86.5797 60.552C90.1216 61.0324 93.991 67.2135 94.0252 68.4788Z" fill="black"/>
<path fill-rule="evenodd" clip-rule="evenodd" d="M73.1664 65.6255C73.0191 65.177 73.0189 65.1771 73.0187 65.1772L73.0182 65.1773L73.017 65.1777L73.0137 65.1788L73.0035 65.1823C72.9952 65.1851 72.9839 65.1891 72.9696 65.1943C72.941 65.2046 72.9007 65.2195 72.8501 65.2395C72.7489 65.2795 72.606 65.3397 72.4318 65.4229C72.0838 65.5893 71.6085 65.849 71.09 66.2257C70.0529 66.9793 68.8338 68.2084 68.1282 70.0999C67.4264 71.9812 67.3942 74.0891 67.6441 75.8913C67.8927 77.6847 68.431 79.2469 68.9367 80.0413C69.0767 80.2612 69.3685 80.326 69.5884 80.186C69.8083 80.046 69.8731 79.7542 69.7331 79.5343C69.3265 78.8956 68.8173 77.4797 68.5792 75.7617C68.3423 74.0524 68.384 72.1154 69.0128 70.4299C69.6377 68.7546 70.7166 67.664 71.6449 66.9896C72.109 66.6523 72.5332 66.421 72.839 66.2748C72.9917 66.2018 73.1143 66.1503 73.1969 66.1176C73.2382 66.1013 73.2694 66.0898 73.2893 66.0826C73.2993 66.079 73.3064 66.0766 73.3105 66.0751L73.3141 66.0739L73.3142 66.0739C73.3143 66.0738 73.3145 66.0738 73.3146 66.0737C73.5617 65.9921 73.6962 65.7256 73.6149 65.4782C73.5335 65.2305 73.2668 65.0957 73.0191 65.177L73.1664 65.6255Z" fill="white"/>
<path fill-rule="evenodd" clip-rule="evenodd" d="M97.8915 83.1273C98.1328 83.226 98.2483 83.5017 98.1496 83.743C97.981 84.1552 97.3859 84.9805 96.2966 84.9805C95.3826 84.9805 94.7762 84.6725 94.5332 84.4085C94.3566 84.2167 94.369 83.918 94.5608 83.7414C94.7526 83.5649 95.0512 83.5772 95.2278 83.7691C95.2277 83.7689 95.2279 83.7691 95.2284 83.7695C95.2359 83.7759 95.3135 83.842 95.4925 83.9086C95.6725 83.9756 95.9384 84.0363 96.2966 84.0363C96.8552 84.0363 97.187 83.6027 97.2758 83.3855C97.3745 83.1442 97.6502 83.0286 97.8915 83.1273Z" fill="black"/>
<path d="M92.9965 74.1829C93.2436 75.078 93.2366 75.8609 92.9809 75.9315C92.7252 76.0021 92.3175 75.3337 92.0705 74.4385C91.8234 73.5434 91.8304 72.7605 92.0861 72.6899C92.3418 72.6193 92.7494 73.2877 92.9965 74.1829Z" fill="black"/>
<path d="M72.2441 166.413C72.2441 161.59 76.1539 157.68 80.9769 157.68C85.7998 157.68 89.7096 161.59 89.7096 166.413V198.515C89.7096 203.338 85.7998 207.248 80.9769 207.248C76.1539 207.248 72.2441 203.338 72.2441 198.515V166.413Z" fill="black"/>
<path d="M112.818 185.768C112.818 180.945 116.728 177.035 121.551 177.035C126.374 177.035 130.283 180.945 130.283 185.768V217.397C130.283 222.221 126.374 226.131 121.551 226.131C116.728 226.131 112.818 222.221 112.818 217.397V185.768Z" fill="black"/>
<path d="M89.3555 177.23C85.1684 174.812 83.7339 169.458 86.1513 165.271C88.5686 161.083 93.9226 159.649 98.1097 162.066L125.592 177.934C129.779 180.352 131.214 185.706 128.796 189.894C126.379 194.081 121.025 195.516 116.838 193.098L89.3555 177.23Z" fill="black"/>
<path d="M72.2441 198.043C72.2441 193.219 76.1539 189.309 80.9769 189.309C85.7998 189.309 89.7096 193.219 89.7096 198.043V230.144C89.7096 234.967 85.7998 238.877 80.9769 238.877C76.1539 238.877 72.2441 234.967 72.2441 230.144V198.043Z" fill="black"/>
<path fill-rule="evenodd" clip-rule="evenodd" d="M85.4136 172.728C85.6644 172.657 85.9254 172.802 85.9966 173.053C86.577 175.098 88.0489 176.514 90.247 177.749C90.4743 177.876 90.5551 178.164 90.4274 178.391C90.2997 178.619 90.012 178.7 89.7847 178.572C87.4803 177.277 85.7652 175.696 85.0884 173.311C85.0172 173.06 85.1628 172.799 85.4136 172.728Z" fill="#E4ECF4"/>
<path d="M96.1395 148.294C96.1796 146.96 97.2888 145.987 98.6169 146.121C99.945 146.255 100.989 147.446 100.949 148.78L100.707 156.842C100.667 158.177 99.5574 159.15 98.2293 159.015C96.9012 158.881 95.8571 157.691 95.8972 156.356L96.1395 148.294Z" fill="white"/>
<path fill-rule="evenodd" clip-rule="evenodd" d="M99.7674 156.747L100.01 148.685C100.034 147.872 99.3979 147.147 98.5885 147.065C97.7792 146.983 97.1033 147.576 97.0788 148.389L96.8365 156.451C96.8121 157.264 97.4483 157.99 98.2577 158.072C99.067 158.153 99.7429 157.561 99.7674 156.747ZM98.6169 146.121C97.2888 145.987 96.1796 146.96 96.1395 148.294L95.8972 156.356C95.8571 157.691 96.9012 158.881 98.2293 159.015C99.5574 159.15 100.667 158.177 100.707 156.842L100.949 148.78C100.989 147.446 99.945 146.255 98.6169 146.121Z" fill="black"/>
<path d="M109.042 223.972C109.042 220.43 112.255 217.757 115.737 218.402L120.755 219.331C121.437 219.457 122.136 219.457 122.818 219.331L127.836 218.402C131.318 217.757 134.532 220.43 134.532 223.972V232.74H109.042V223.972Z" fill="#FF4B78"/>
<path fill-rule="evenodd" clip-rule="evenodd" d="M133.588 231.796V223.972C133.588 221.02 130.91 218.793 128.008 219.33L122.99 220.259C122.194 220.407 121.379 220.407 120.583 220.259L115.566 219.33C112.664 218.793 109.986 221.02 109.986 223.972V231.796H133.588ZM115.737 218.402C112.255 217.757 109.042 220.43 109.042 223.972V232.74H134.532V223.972C134.532 220.43 131.318 217.757 127.836 218.402L122.818 219.331C122.136 219.457 121.437 219.457 120.755 219.331L115.737 218.402Z" fill="black"/>
<path d="M84.7925 242.654C84.7925 239.525 87.3286 236.989 90.457 236.989H94.2333C97.3617 236.989 99.8978 239.525 99.8978 242.654V246.43H84.7925V242.654Z" fill="white"/>
<path fill-rule="evenodd" clip-rule="evenodd" d="M94.6967 57.7556C95.0883 58.3218 95.2405 59.0844 95.1119 60.0486C94.9127 61.5433 93.5602 62.2256 92.1921 62.405C90.8055 62.5868 89.1767 62.3026 87.9832 61.6629C87.2158 61.2976 86.5228 61.0778 85.949 60.8958C85.7997 60.8485 85.6584 60.8037 85.526 60.7596C85.2787 60.6771 85.145 60.4098 85.2275 60.1624C85.3099 59.9151 85.5772 59.7814 85.8246 59.8639C85.9401 59.9024 86.0692 59.9432 86.2099 59.9878C86.7881 60.1708 87.5628 60.4161 88.3999 60.8156L88.4103 60.8206L88.4205 60.8261C89.4323 61.3714 90.8658 61.6267 92.0694 61.4688C93.2954 61.3081 94.0636 60.7681 94.1761 59.9238C94.2836 59.1177 94.1408 58.6117 93.9202 58.2927C93.6992 57.9732 93.3527 57.7728 92.9162 57.673C92.4765 57.5725 91.9741 57.5822 91.5049 57.6632C91.0325 57.7448 90.6345 57.8915 90.4025 58.0307C90.179 58.1648 89.889 58.0923 89.7549 57.8687C89.6208 57.6452 89.6933 57.3552 89.9168 57.2211C90.2749 57.0062 90.7915 56.8283 91.3443 56.7328C91.9003 56.6368 92.5337 56.6171 93.1266 56.7526C93.7227 56.8889 94.3055 57.19 94.6967 57.7556Z" fill="black"/>
<path d="M74.5825 165.348H81.6631V168.889C81.6631 170.844 80.0781 172.429 78.1228 172.429C76.1676 172.429 74.5825 170.844 74.5825 168.889V165.348Z" fill="black"/>
<path fill-rule="evenodd" clip-rule="evenodd" d="M80.719 166.292H75.5266V168.889C75.5266 170.323 76.689 171.485 78.1228 171.485C79.5567 171.485 80.719 170.323 80.719 168.889V166.292ZM74.5825 165.348V168.889C74.5825 170.844 76.1676 172.429 78.1228 172.429C80.0781 172.429 81.6631 170.844 81.6631 168.889V165.348H74.5825Z" fill="white"/>
<path d="M89.2158 165.233H96.2964V168.774C96.2964 170.729 94.7114 172.315 92.7561 172.315C90.8009 172.315 89.2158 170.729 89.2158 168.774V165.233Z" fill="black"/>
<path fill-rule="evenodd" clip-rule="evenodd" d="M95.3523 166.178H90.1599V168.774C90.1599 170.208 91.3223 171.37 92.7561 171.37C94.19 171.37 95.3523 170.208 95.3523 168.774V166.178ZM89.2158 165.233V168.774C89.2158 170.729 90.8009 172.315 92.7561 172.315C94.7114 172.315 96.2964 170.729 96.2964 168.774V165.233H89.2158Z" fill="white"/>
<path fill-rule="evenodd" clip-rule="evenodd" d="M103.322 108.077C99.9842 105.681 95.3152 106.619 93.1623 110.119L92.1903 111.699C90.1321 115.044 91.1899 119.425 94.5476 121.463L114.211 133.396L98.953 142.646C96.7343 143.991 95.7646 146.709 96.6307 149.154C97.7084 152.198 101.173 153.653 104.1 152.29L129.989 140.243C132.96 138.86 134.512 135.668 133.944 132.588C133.693 130.845 132.758 129.207 131.225 128.107L103.322 108.077Z" fill="white"/>
<path fill-rule="evenodd" clip-rule="evenodd" d="M116.032 133.396L99.4424 143.453C97.6064 144.566 96.8039 146.815 97.5206 148.839C98.4125 151.358 101.279 152.562 103.702 151.434L129.591 139.386C132.162 138.19 133.508 135.426 133.015 132.759L133.012 132.741L133.009 132.722C132.794 131.224 131.991 129.819 130.675 128.874L102.771 108.844C99.8787 106.767 95.8322 107.581 93.9664 110.613L92.9943 112.193C91.2106 115.093 92.1273 118.89 95.0374 120.656L116.032 133.396ZM98.953 142.646C96.7343 143.991 95.7646 146.709 96.6307 149.154C97.7084 152.198 101.173 153.653 104.1 152.29L129.989 140.243C132.96 138.86 134.512 135.668 133.944 132.588C133.693 130.845 132.758 129.207 131.225 128.107L103.322 108.077C99.9842 105.681 95.3152 106.619 93.1623 110.119L92.1903 111.699C90.1321 115.044 91.1899 119.425 94.5476 121.463L114.211 133.396L98.953 142.646Z" fill="black"/>
<path d="M103.768 153.805C104.868 153.206 106.134 153.923 106.13 155.142C106.129 155.782 105.76 156.39 105.182 156.705L103.83 157.44C102.738 158.034 101.471 158.121 100.381 157.677L99.0281 157.126C98.4488 156.889 98.0805 156.329 98.0822 155.685C98.0854 154.465 99.3528 153.572 100.454 154.015L101.217 154.323C101.799 154.557 102.474 154.509 103.056 154.192L103.768 153.805Z" fill="white"/>
<path fill-rule="evenodd" clip-rule="evenodd" d="M103.428 156.615L104.78 155.88C105.029 155.744 105.188 155.482 105.189 155.206C105.19 154.68 104.644 154.372 104.17 154.63L103.458 155.017C102.621 155.473 101.652 155.541 100.815 155.205L100.051 154.897C99.5746 154.706 99.0255 155.092 99.0241 155.621C99.0234 155.9 99.1829 156.143 99.4339 156.245L100.786 156.796C101.621 157.137 102.591 157.07 103.428 156.615ZM106.13 155.142C106.134 153.923 104.868 153.206 103.768 153.805L103.056 154.192C102.474 154.509 101.799 154.557 101.217 154.323L100.454 154.015C99.3528 153.572 98.0854 154.465 98.0822 155.685C98.0805 156.329 98.4488 156.889 99.0281 157.126L100.381 157.677C101.471 158.121 102.738 158.034 103.83 157.44L105.182 156.705C105.76 156.39 106.129 155.782 106.13 155.142Z" fill="black"/>
<path d="M103.321 156.521C104.42 155.922 105.686 156.639 105.683 157.858C105.681 158.498 105.312 159.106 104.734 159.421L103.383 160.156C102.29 160.75 101.023 160.837 99.9331 160.393L98.5806 159.842C98.0013 159.605 97.633 159.045 97.6347 158.401C97.6378 157.181 98.9053 156.289 100.006 156.731L100.77 157.039C101.352 157.273 102.026 157.225 102.608 156.908L103.321 156.521Z" fill="white"/>
<path fill-rule="evenodd" clip-rule="evenodd" d="M102.98 159.331L104.332 158.596C104.581 158.46 104.74 158.198 104.741 157.922C104.742 157.397 104.197 157.088 103.723 157.346L103.011 157.733C102.174 158.189 101.204 158.257 100.368 157.921L99.604 157.613C99.1271 157.422 98.5779 157.808 98.5766 158.337C98.5758 158.616 98.7354 158.859 98.9864 158.961L100.339 159.512C101.174 159.853 102.144 159.786 102.98 159.331ZM105.683 157.858C105.686 156.639 104.42 155.922 103.321 156.521L102.608 156.908C102.026 157.225 101.352 157.273 100.77 157.039L100.006 156.731C98.9053 156.289 97.6378 157.181 97.6347 158.401C97.633 159.045 98.0013 159.605 98.5806 159.842L99.9331 160.393C101.023 160.837 102.29 160.75 103.383 160.156L104.734 159.421C105.312 159.106 105.681 158.498 105.683 157.858Z" fill="black"/>
<path d="M103.91 151.449C105.01 150.85 106.275 151.567 106.272 152.786C106.27 153.426 105.901 154.034 105.324 154.349L103.972 155.084C102.879 155.678 101.613 155.765 100.522 155.321L99.1697 154.77C98.5904 154.533 98.2221 153.973 98.2238 153.329C98.2269 152.109 99.4944 151.217 100.595 151.659L101.359 151.967C101.941 152.201 102.615 152.153 103.197 151.836L103.91 151.449Z" fill="white"/>
<path fill-rule="evenodd" clip-rule="evenodd" d="M103.569 154.259L104.921 153.524C105.17 153.388 105.329 153.126 105.33 152.85C105.332 152.325 104.786 152.016 104.312 152.274L103.6 152.661C102.763 153.117 101.793 153.185 100.957 152.849L100.193 152.541C99.7162 152.35 99.167 152.736 99.1657 153.265C99.165 153.544 99.3245 153.787 99.5755 153.889L100.928 154.44C101.763 154.781 102.733 154.714 103.569 154.259ZM106.272 152.786C106.275 151.567 105.01 150.85 103.91 151.449L103.197 151.836C102.615 152.153 101.941 152.201 101.359 151.967L100.595 151.659C99.4944 151.217 98.2269 152.109 98.2238 153.329C98.2221 153.973 98.5904 154.533 99.1697 154.77L100.522 155.321C101.613 155.765 102.879 155.678 103.972 155.084L105.324 154.349C105.901 154.034 106.27 153.426 106.272 152.786Z" fill="black"/>
<path d="M109.042 231.796H283.696C291.778 231.796 298.329 238.348 298.329 246.43H109.042V231.796Z" fill="white"/>
<path fill-rule="evenodd" clip-rule="evenodd" d="M298.3 245.486C298.319 245.798 298.329 246.113 298.329 246.43H109.042V231.796H283.696C291.461 231.796 297.813 237.844 298.3 245.486ZM297.353 245.486C296.868 238.365 290.939 232.74 283.696 232.74H109.986V245.486H297.353Z" fill="black"/>
<path d="M7.08057 79.9032C7.08057 77.5567 8.98262 75.6545 11.3289 75.6545C13.6752 75.6545 15.5773 77.5567 15.5773 79.9032V103.507C15.5773 105.853 13.6752 107.756 11.3289 107.756C8.98262 107.756 7.08057 105.853 7.08057 103.507V79.9032Z" fill="#2C73FB"/>
<path d="M19.3533 95.7175C19.3533 93.5014 21.1497 91.7048 23.3656 91.7048C25.5816 91.7048 27.378 93.5014 27.378 95.7175V103.743C27.378 105.959 25.5816 107.755 23.3656 107.755C21.1497 107.755 19.3533 105.959 19.3533 103.743V95.7175Z" fill="#FF4B78"/>
<path d="M31.6272 87.2202C31.6272 85.004 33.4236 83.2075 35.6395 83.2075C37.8555 83.2075 39.6519 85.004 39.6519 87.2202V103.743C39.6519 105.959 37.8555 107.755 35.6395 107.755C33.4236 107.755 31.6272 105.959 31.6272 103.743V87.2202Z" fill="#47DB99"/>
<path d="M245.933 128.054C245.933 126.751 246.99 125.694 248.293 125.694C249.597 125.694 250.653 126.751 250.653 128.054V141.745C250.653 143.048 249.597 144.105 248.293 144.105C246.99 144.105 245.933 143.048 245.933 141.745V128.054Z" fill="#47DB99"/>
<path d="M270.007 125.222C270.007 123.658 271.275 122.39 272.839 122.39C274.404 122.39 275.672 123.658 275.672 125.222V141.273C275.672 142.837 274.404 144.105 272.839 144.105C271.275 144.105 270.007 142.837 270.007 141.273V125.222Z" fill="#E4ECF4"/>
<path d="M253.486 135.371C253.486 133.937 254.648 132.775 256.082 132.775C257.516 132.775 258.678 133.937 258.678 135.371V141.508C258.678 142.942 257.516 144.105 256.082 144.105C254.648 144.105 253.486 142.942 253.486 141.508V135.371Z" fill="#FF4B78"/>
<path d="M261.51 130.415C261.51 128.851 262.779 127.582 264.343 127.582C265.907 127.582 267.175 128.851 267.175 130.415V141.273C267.175 142.837 265.907 144.105 264.343 144.105C262.779 144.105 261.51 142.837 261.51 141.273V130.415Z" fill="#2C73FB"/>
<path d="M278.504 140.801C278.504 139.236 279.772 137.968 281.336 137.968C282.9 137.968 284.168 139.236 284.168 140.801V141.273C284.168 142.837 282.9 144.105 281.336 144.105C279.772 144.105 278.504 142.837 278.504 141.273V140.801Z" fill="#47DB99"/>
<path fill-rule="evenodd" clip-rule="evenodd" d="M304.466 128.527C304.466 128.266 304.677 128.054 304.938 128.054H334.677C334.937 128.054 335.149 128.266 335.149 128.527C335.149 128.787 334.937 128.999 334.677 128.999H304.938C304.677 128.999 304.466 128.787 304.466 128.527Z" fill="black"/>
<path fill-rule="evenodd" clip-rule="evenodd" d="M304.466 133.247C304.466 132.986 304.677 132.775 304.938 132.775H334.677C334.937 132.775 335.149 132.986 335.149 133.247C335.149 133.508 334.937 133.719 334.677 133.719H304.938C304.677 133.719 304.466 133.508 304.466 133.247Z" fill="black"/>
<path fill-rule="evenodd" clip-rule="evenodd" d="M304.466 137.968C304.466 137.707 304.677 137.496 304.938 137.496H334.677C334.937 137.496 335.149 137.707 335.149 137.968C335.149 138.229 334.937 138.44 334.677 138.44H304.938C304.677 138.44 304.466 138.229 304.466 137.968Z" fill="black"/>
<path fill-rule="evenodd" clip-rule="evenodd" d="M304.466 142.689C304.466 142.428 304.677 142.217 304.938 142.217H334.677C334.937 142.217 335.149 142.428 335.149 142.689C335.149 142.95 334.937 143.161 334.677 143.161H304.938C304.677 143.161 304.466 142.95 304.466 142.689Z" fill="black"/>
<path fill-rule="evenodd" clip-rule="evenodd" d="M304.466 168.653C304.466 168.392 304.677 168.181 304.938 168.181H334.677C334.937 168.181 335.149 168.392 335.149 168.653C335.149 168.913 334.937 169.125 334.677 169.125H304.938C304.677 169.125 304.466 168.913 304.466 168.653Z" fill="black"/>
<path fill-rule="evenodd" clip-rule="evenodd" d="M304.466 163.932C304.466 163.671 304.677 163.46 304.938 163.46H320.043C320.304 163.46 320.515 163.671 320.515 163.932C320.515 164.193 320.304 164.404 320.043 164.404H304.938C304.677 164.404 304.466 164.193 304.466 163.932Z" fill="black"/>
<path fill-rule="evenodd" clip-rule="evenodd" d="M304.466 178.095C304.466 177.834 304.677 177.622 304.938 177.622H334.677C334.937 177.622 335.149 177.834 335.149 178.095C335.149 178.355 334.937 178.567 334.677 178.567H304.938C304.677 178.567 304.466 178.355 304.466 178.095Z" fill="black"/>
<path fill-rule="evenodd" clip-rule="evenodd" d="M304.466 173.373C304.466 173.113 304.677 172.901 304.938 172.901H320.043C320.304 172.901 320.515 173.113 320.515 173.373C320.515 173.634 320.304 173.845 320.043 173.845H304.938C304.677 173.845 304.466 173.634 304.466 173.373Z" fill="black"/>
<path fill-rule="evenodd" clip-rule="evenodd" d="M304.466 93.1212C304.466 92.8605 304.677 92.6492 304.938 92.6492H334.677C334.937 92.6492 335.149 92.8605 335.149 93.1212C335.149 93.382 334.937 93.5933 334.677 93.5933H304.938C304.677 93.5933 304.466 93.382 304.466 93.1212Z" fill="black"/>
<path fill-rule="evenodd" clip-rule="evenodd" d="M304.466 97.8416C304.466 97.5809 304.677 97.3695 304.938 97.3695H334.677C334.937 97.3695 335.149 97.5809 335.149 97.8416C335.149 98.1023 334.937 98.3136 334.677 98.3136H304.938C304.677 98.3136 304.466 98.1023 304.466 97.8416Z" fill="black"/>
<path fill-rule="evenodd" clip-rule="evenodd" d="M304.466 102.562C304.466 102.302 304.677 102.09 304.938 102.09H320.043C320.304 102.09 320.515 102.302 320.515 102.562C320.515 102.823 320.304 103.034 320.043 103.034H304.938C304.677 103.034 304.466 102.823 304.466 102.562Z" fill="black"/>
<path fill-rule="evenodd" clip-rule="evenodd" d="M304.466 107.283C304.466 107.022 304.677 106.811 304.938 106.811H320.043C320.304 106.811 320.515 107.022 320.515 107.283C320.515 107.544 320.304 107.755 320.043 107.755H304.938C304.677 107.755 304.466 107.544 304.466 107.283Z" fill="black"/>
<path d="M35.875 219.637H24.074L26.1982 246.073H45.7878L47.912 219.637H35.875Z" fill="white"/>
<path fill-rule="evenodd" clip-rule="evenodd" d="M23.5625 219.165H48.4235L46.2235 246.545H25.7625L23.5625 219.165ZM24.5855 220.109L26.6338 245.601H45.3522L47.4005 220.109H24.5855Z" fill="black"/>
<path d="M23.9931 204.015C23.989 204.013 23.985 204.011 23.9809 204.01C22.8188 203.552 14.7748 210.2 11.0119 213.023C7.23557 215.855 3.0385 214.49 1.57121 213.023C-0.0756845 211.376 -1.02501 206.65 7.47171 201.929C14.2691 198.153 21.3182 201.746 23.9931 204.015Z" fill="#47DB99"/>
<path fill-rule="evenodd" clip-rule="evenodd" d="M17.3891 200.246C20.3745 200.965 22.8451 202.438 24.2435 203.608C25.7821 204.268 27.3713 205.15 28.9817 206.261C34.6615 210.178 35.2527 216.848 34.8455 219.698L33.9109 219.565C34.2904 216.908 33.7172 210.674 28.4457 207.038C26.8679 205.95 25.3202 205.094 23.8328 204.459C23.8219 204.46 23.8035 204.462 23.776 204.467C23.6967 204.483 23.5822 204.519 23.4287 204.584C23.1229 204.713 22.7223 204.932 22.2416 205.229C21.2836 205.821 20.065 206.687 18.754 207.664C17.4451 208.64 16.054 209.718 14.7525 210.732C14.5955 210.854 14.4398 210.975 14.2857 211.095C13.1641 211.969 12.1262 212.777 11.2953 213.4C9.30376 214.894 7.18996 215.286 5.37881 215.105C3.58493 214.925 2.06094 214.18 1.23762 213.356C0.292464 212.411 -0.40515 210.636 0.267282 208.487C0.936615 206.349 2.93921 203.907 7.24264 201.516C10.7671 199.558 14.3552 199.515 17.3891 200.246ZM23.808 204.448C23.808 204.448 23.808 204.448 23.808 204.448L23.8903 204.24L23.8904 204.239L23.808 204.448ZM20.6981 202.455C17.0596 201.665 13.8624 202.248 11.6471 204.168L12.2654 204.882C14.5622 202.891 18.2186 202.445 22.5499 203.96C22.3014 204.092 22.0314 204.249 21.7456 204.426C20.7509 205.04 19.5054 205.927 18.1898 206.907C16.8721 207.889 15.4739 208.973 14.1726 209.986C14.0154 210.109 13.8597 210.23 13.7058 210.35C12.5826 211.225 11.5523 212.027 10.7288 212.645C8.94404 213.983 7.07115 214.325 5.47285 214.165C3.8573 214.003 2.5491 213.333 1.90513 212.689C1.2034 211.987 0.602899 210.576 1.16826 208.769C1.73672 206.953 3.50782 204.671 7.70112 202.341C10.974 200.523 14.3091 200.475 17.1679 201.163C18.4652 201.476 19.6597 201.94 20.6981 202.455Z" fill="black"/>
<path d="M25.0242 183.652C23.9576 189.732 28.3566 197.808 30.6894 201.086C28.801 199.894 23.7798 196.482 18.8019 192.369C12.5796 187.228 9.91295 179.625 9.91284 173.147C9.91275 167.741 14.5796 156.607 22.802 156.384C31.0244 156.16 30.6894 165.097 28.5799 170.018C27.3993 172.771 26.3576 176.053 25.0242 183.652Z" fill="#47DB99"/>
<path fill-rule="evenodd" clip-rule="evenodd" d="M30.0244 161.161C30.7353 164.108 30.0959 167.679 29.0138 170.203C27.853 172.911 26.8193 176.153 25.4893 183.733C24.9785 186.645 25.7742 190.085 27.0212 193.246C28.2602 196.386 29.918 199.185 31.0644 200.798C37.8923 209.077 36.7743 216.696 34.9916 219.868C34.8639 220.096 34.5761 220.176 34.3488 220.049C34.1216 219.921 34.0409 219.633 34.1686 219.406C35.7454 216.6 36.9271 209.423 30.3732 201.444C28.4232 200.208 23.4415 196.814 18.5014 192.732C12.1532 187.488 9.44103 179.742 9.44092 173.146C9.44087 170.34 10.6409 166.119 12.8746 162.57C15.1066 159.023 18.4497 156.029 22.7893 155.911C24.9331 155.853 26.5708 156.392 27.7672 157.36C28.96 158.325 29.6667 159.677 30.0244 161.161ZM27.4553 198.343C25.1244 196.711 22.1054 194.485 19.1027 192.005C13.0061 186.968 10.3851 179.508 10.385 173.146C10.385 170.547 11.5183 166.498 13.6736 163.073C15.8305 159.645 18.9321 156.96 22.8149 156.855C24.7823 156.801 26.1861 157.295 27.1735 158.094C28.1645 158.896 28.7839 160.044 29.1066 161.382C29.7565 164.077 29.1736 167.435 28.1461 169.831C26.9458 172.631 25.8962 175.951 24.5594 183.57C24.0036 186.738 24.874 190.376 26.143 193.592C26.6969 194.996 27.3318 196.333 27.9701 197.532C27.8364 197.408 27.7007 197.283 27.5631 197.159C21.0623 191.286 17.9071 185.615 16.9038 180.57C15.9013 175.528 17.0386 171.067 19.2029 167.584C19.3406 167.363 19.2726 167.072 19.0512 166.934C18.8298 166.797 18.5387 166.865 18.4011 167.086C16.1209 170.755 14.9248 175.458 15.9779 180.754C17.0303 186.047 20.3196 191.887 26.9302 197.86C27.1087 198.021 27.2837 198.182 27.4553 198.343Z" fill="black"/>
<path d="M48.0817 202C44.8716 203.307 41.4881 206.798 40.1976 208.38C40.8526 197.994 48.2248 192.459 49.8801 191.521C52.1862 190.213 54.9453 190.971 55.5272 193.899C56.2197 197.384 53.599 199.752 48.0817 202Z" fill="#47DB99"/>
<path fill-rule="evenodd" clip-rule="evenodd" d="M53.5158 190.679C54.7342 191.133 55.671 192.198 55.9908 193.807C56.3698 195.714 55.8296 197.331 54.474 198.74C53.1452 200.122 51.035 201.306 48.2604 202.437C46.7263 203.062 45.1241 204.222 43.7314 205.442C42.3705 206.634 41.238 207.858 40.6013 208.632C40.0002 209.939 39.5349 211.58 39.0575 213.264C38.9537 213.631 38.8492 213.999 38.7426 214.367C38.1535 216.399 37.493 218.43 36.4802 219.696C36.3173 219.899 36.0203 219.932 35.8167 219.769C35.6131 219.607 35.5801 219.31 35.743 219.106C36.6182 218.012 37.2362 216.172 37.8359 214.104C37.9378 213.752 38.0391 213.395 38.1409 213.035C38.6152 211.36 39.1026 209.639 39.7328 208.261C40.4377 197.714 47.9208 192.089 49.6478 191.11C50.9013 190.399 52.3132 190.23 53.5158 190.679ZM42.9262 204.894C44.6255 202.451 46.2402 200.485 48.8294 198.637C49.0416 198.486 49.0909 198.191 48.9394 197.979C48.788 197.766 48.4932 197.717 48.281 197.869C44.9375 200.255 43.1433 202.845 40.9268 206.158C42.3836 197.44 48.6557 192.758 50.1135 191.931C51.1661 191.334 52.2868 191.228 53.1858 191.564C54.069 191.893 54.8027 192.672 55.0648 193.991C55.3784 195.569 54.9545 196.879 53.7935 198.086C52.6057 199.321 50.6469 200.445 47.9042 201.562C46.2282 202.245 44.5336 203.484 43.1094 204.732C43.0478 204.786 42.9868 204.84 42.9262 204.894Z" fill="black"/>
<path d="M245.933 84.1514H284.168V107.283H245.933V84.1514Z" fill="#E4ECF4"/>
<path d="M225.635 84.1514H235.076V93.5929H225.635V84.1514Z" fill="#E4ECF4"/>
<path d="M220.915 88.8726H230.356V98.3141H220.915V88.8726Z" fill="#47DB99"/>
<path fill-rule="evenodd" clip-rule="evenodd" d="M277.352 88.009C277.568 88.1548 277.625 88.4483 277.479 88.6644L270.626 98.816L267.349 95.6259L262.768 101.23L259.459 90.9631L253.437 103.242C253.322 103.477 253.04 103.573 252.806 103.458C252.571 103.344 252.475 103.061 252.59 102.827L259.641 88.4487L263.135 99.2899L267.269 94.2312L270.475 97.3518L276.696 88.1361C276.842 87.92 277.135 87.8631 277.352 88.009Z" fill="black"/>
<path fill-rule="evenodd" clip-rule="evenodd" d="M46.2598 246.545L0.471924 246.545L0.471924 245.601L46.2598 245.601L46.2598 246.545Z" fill="black"/>
<path d="M230.355 116.725L230.355 118.141L220.915 118.141L220.915 116.725L230.355 116.725Z" fill="#E4ECF4"/>
<path d="M230.355 120.501L230.355 121.918L220.915 121.918L220.915 120.501L230.355 120.501Z" fill="#E4ECF4"/>
<path d="M230.355 124.265L230.355 125.681L220.915 125.681L220.915 124.265L230.355 124.265Z" fill="#E4ECF4"/>
<path d="M230.355 127.836L230.355 129.252L220.915 129.252L220.915 127.836L230.355 127.836Z" fill="#E4ECF4"/>
<path d="M230.355 131.804L230.355 133.22L220.915 133.22L220.915 131.804L230.355 131.804Z" fill="#E4ECF4"/>
<path d="M230.355 135.375L230.355 136.792L220.915 136.792L220.915 135.375L230.355 135.375Z" fill="#E4ECF4"/>
<path d="M230.355 138.946L230.355 140.363L220.915 140.363L220.915 138.946L230.355 138.946Z" fill="#E4ECF4"/>
<path d="M230.355 142.915L230.355 144.331L220.915 144.331L220.915 142.915L230.355 142.915Z" fill="#E4ECF4"/>
<path d="M15.5776 116.725L15.5776 118.141L7.08092 118.141L7.08092 116.725L15.5776 116.725Z" fill="#E4ECF4"/>
<path d="M15.5776 120.501L15.5776 121.918L7.08092 121.918L7.08092 120.501L15.5776 120.501Z" fill="#E4ECF4"/>
<path d="M15.5776 124.265L15.5776 125.681L7.08092 125.681L7.08092 124.265L15.5776 124.265Z" fill="#E4ECF4"/>
<path d="M15.5776 127.836L15.5776 129.252L7.08092 129.252L7.08092 127.836L15.5776 127.836Z" fill="#E4ECF4"/>
<path d="M15.5776 131.804L15.5776 133.22L7.08092 133.22L7.08092 131.804L15.5776 131.804Z" fill="#E4ECF4"/>
<path d="M15.5776 135.375L15.5776 136.792L7.08092 136.792L7.08092 135.375L15.5776 135.375Z" fill="#E4ECF4"/>
<path d="M15.5776 138.946L15.5776 140.363L7.08092 140.363L7.08092 138.946L15.5776 138.946Z" fill="#E4ECF4"/>
<path d="M15.5776 142.915L15.5776 144.331L7.08092 144.331L7.08092 142.915L15.5776 142.915Z" fill="#E4ECF4"/>
<path d="M27.8503 116.725L27.8503 118.141L19.3536 118.141L19.3536 116.725L27.8503 116.725Z" fill="#E4ECF4"/>
<path d="M27.8503 120.501L27.8503 121.918L19.3536 121.918L19.3536 120.501L27.8503 120.501Z" fill="#E4ECF4"/>
<path d="M27.8503 124.265L27.8503 125.681L19.3536 125.681L19.3536 124.265L27.8503 124.265Z" fill="#E4ECF4"/>
<path d="M27.8503 127.836L27.8503 129.252L19.3536 129.252L19.3536 127.836L27.8503 127.836Z" fill="#E4ECF4"/>
<path d="M27.8503 131.804L27.8503 133.22L19.3536 133.22L19.3536 131.804L27.8503 131.804Z" fill="#E4ECF4"/>
<path d="M27.8503 135.375L27.8503 136.792L19.3536 136.792L19.3536 135.375L27.8503 135.375Z" fill="#E4ECF4"/>
<path d="M27.8503 138.946L27.8503 140.363L19.3536 140.363L19.3536 138.946L27.8503 138.946Z" fill="#E4ECF4"/>
<path d="M27.8503 142.915L27.8503 144.331L19.3536 144.331L19.3536 142.915L27.8503 142.915Z" fill="#E4ECF4"/>
<path fill-rule="evenodd" clip-rule="evenodd" d="M95.5804 237.933H91.8041C89.1971 237.933 87.0837 240.047 87.0837 242.654V245.486H100.301V242.654C100.301 240.047 98.1875 237.933 95.5804 237.933ZM91.8041 236.989C88.6757 236.989 86.1396 239.525 86.1396 242.654V246.431H101.245V242.654C101.245 239.525 98.7089 236.989 95.5804 236.989H91.8041Z" fill="black"/>
<path d="M68.6746 237.662C68.6746 234.12 71.8881 231.447 75.3705 232.092L80.3882 233.021C81.07 233.147 81.7693 233.147 82.4511 233.021L87.4688 232.092C90.9512 231.447 94.1647 234.12 94.1647 237.662V246.43H68.6746V237.662Z" fill="#FF4B78"/>
<path fill-rule="evenodd" clip-rule="evenodd" d="M93.2207 245.486V237.662C93.2207 234.711 90.5427 232.483 87.6407 233.02L82.623 233.95C81.8275 234.097 81.0118 234.097 80.2163 233.95L75.1986 233.02C72.2966 232.483 69.6186 234.711 69.6186 237.662V245.486H93.2207ZM75.3705 232.092C71.8881 231.447 68.6746 234.12 68.6746 237.662V246.43H94.1647V237.662C94.1647 234.12 90.9512 231.447 87.4688 232.092L82.4511 233.021C81.7693 233.147 81.07 233.147 80.3882 233.021L75.3705 232.092Z" fill="black"/>
<path fill-rule="evenodd" clip-rule="evenodd" d="M73.395 245.837V243.241H74.3391V245.837H73.395Z" fill="black"/>
<path fill-rule="evenodd" clip-rule="evenodd" d="M78.3511 245.837V243.241H79.2952V245.837H78.3511Z" fill="black"/>
<path fill-rule="evenodd" clip-rule="evenodd" d="M83.0715 245.837V243.241H84.0156V245.837H83.0715Z" fill="black"/>
<path fill-rule="evenodd" clip-rule="evenodd" d="M113.762 232.147V229.551H114.706V232.147H113.762Z" fill="black"/>
<path fill-rule="evenodd" clip-rule="evenodd" d="M118.718 232.147V229.551H119.662V232.147H118.718Z" fill="black"/>
<path fill-rule="evenodd" clip-rule="evenodd" d="M123.439 232.147V229.551H124.383V232.147H123.439Z" fill="black"/>
<path fill-rule="evenodd" clip-rule="evenodd" d="M282.569 5.09974C287.627 6.01216 292.952 9.35936 298.54 15.0046C301.328 17.8208 304.138 21.1628 307.014 24.6389C307.332 25.0232 307.651 25.4092 307.97 25.7962C310.517 28.8789 313.113 32.0227 315.714 34.837C318.633 37.997 321.67 40.8682 324.802 42.8456C327.942 44.8279 331.384 46.0406 335.014 45.5168C336.304 45.3307 337.199 44.1338 337.013 42.8436C336.826 41.5533 335.63 40.6583 334.34 40.8445C332.226 41.1495 329.925 40.4975 327.322 38.8538C324.711 37.2052 322.004 34.6892 319.181 31.6332C316.676 28.9221 314.167 25.8858 311.608 22.788C311.29 22.4026 310.971 22.0162 310.651 21.6294C307.784 18.1643 304.85 14.6687 301.895 11.6834C295.997 5.7255 289.835 1.61353 283.407 0.453958C276.836 -0.731429 270.392 1.23745 264.214 6.58674C258.583 11.4627 253.02 19.3046 247.684 26.8263C247.323 27.3344 246.964 27.8411 246.606 28.3453C240.789 36.5297 235.278 44.0297 229.919 47.8969C224.849 51.5549 219.958 51.8874 214.941 49.8963C209.73 47.8283 204.289 43.2019 198.625 36.6624C196.367 34.0563 194.114 31.195 191.821 28.2822C191.242 27.5476 190.661 26.8096 190.076 26.0717C187.204 22.4451 184.262 18.8304 181.289 15.8273C178.339 12.8472 175.192 10.2939 171.867 8.97446C168.418 7.60567 164.78 7.57675 161.202 9.64213C160.073 10.2938 159.686 11.7373 160.338 12.8664C160.99 13.9954 162.433 14.3824 163.562 13.7307C165.727 12.4809 167.832 12.452 170.126 13.3624C172.545 14.3221 175.141 16.3272 177.934 19.1486C180.705 21.9472 183.505 25.3772 186.376 29.0026C186.94 29.7152 187.508 30.4359 188.078 31.1598C190.378 34.0814 192.72 37.0551 195.057 39.7533C200.879 46.4746 206.924 51.7937 213.2 54.2842C219.669 56.8514 226.264 56.3551 232.681 51.7252C238.808 47.3044 244.784 39.0573 250.453 31.0802C250.766 30.6398 251.078 30.2001 251.39 29.7614C256.873 22.0369 262.123 14.6412 267.304 10.1557C272.612 5.55944 277.654 4.21314 282.569 5.09974Z" fill="#47DB99"/>
<path fill-rule="evenodd" clip-rule="evenodd" d="M307.242 32.3949C316.246 26.5781 325.115 26.558 329.939 26.558H334.677C335.98 26.558 337.037 25.5013 337.037 24.1977C337.037 22.8941 335.98 21.8373 334.677 21.8373L329.894 21.8373C324.939 21.8372 314.885 21.8371 304.68 28.4295C302.141 30.0699 299.648 32.0957 297.252 34.1065C296.736 34.5396 296.225 34.971 295.719 35.399C293.835 36.9905 292.009 38.5335 290.176 39.9257C285.408 43.5461 281.419 45.4686 277.742 44.6769C275.854 44.2704 273.794 43.1021 271.502 41.3184C269.37 39.6592 267.228 37.6236 264.979 35.4878C264.824 35.3404 264.668 35.1925 264.512 35.0443C262.141 32.793 259.644 30.4515 257.106 28.6137C254.583 26.7863 251.787 25.2816 248.782 24.9581C245.726 24.6291 242.829 25.5544 240.171 27.0655C237.523 28.5705 234.969 30.7375 232.523 33.1252C230.117 35.4739 227.723 38.1312 225.386 40.7247L225.253 40.8729C222.851 43.5382 220.509 46.1314 218.171 48.3966C208.76 57.5167 200.296 60.8049 192.032 57.2457C187.673 55.3686 183.168 51.5125 179.044 47.1713C175.277 43.2063 171.996 39.0206 169.58 35.9377C169.376 35.6777 169.178 35.4256 168.987 35.1821L164.259 28.9811C163.469 27.9444 161.988 27.7448 160.951 28.5352C159.915 29.3256 159.715 30.8068 160.505 31.8434L165.254 38.0715L165.264 38.0849C165.46 38.3335 165.663 38.5928 165.874 38.8621C168.281 41.9332 171.692 46.2868 175.621 50.4228C179.861 54.8855 184.903 59.3155 190.165 61.5815C201.14 66.3083 211.628 61.3104 221.456 51.7869C223.929 49.3911 226.378 46.6761 228.76 44.033L228.841 43.9427C231.216 41.3064 233.524 38.7451 235.82 36.5032C238.149 34.23 240.368 32.3835 242.504 31.1696C244.628 29.9618 246.523 29.4629 248.277 29.6518C250.083 29.8462 252.079 30.8014 254.338 32.4374C256.583 34.0629 258.86 36.1881 261.263 38.4683C261.431 38.6285 261.601 38.7894 261.771 38.951C263.973 41.0438 266.279 43.2351 268.603 45.044C271.094 46.9826 273.827 48.6627 276.749 49.2919C282.692 50.5717 288.25 47.3154 293.031 43.6855C294.972 42.2111 296.922 40.5635 298.817 38.9616C299.311 38.5443 299.801 38.1301 300.286 37.7229C302.672 35.7202 304.971 33.8619 307.242 32.3949Z" fill="#2C73FB"/>
</svg>
